<svg width="24" height="24" viewBox="0 0 24 24" fill="#000"><defs><path id="prefix__a" d="M0 0H24V24H0z"></path></defs><g><g><path d="M22.074 2.48c.26.272.277.69.053.978l-.075.083-18.75 18c-.298.287-.773.277-1.06-.022-.26-.271-.277-.688-.053-.977l.075-.083 18.75-18c.298-.287.773-.277 1.06.022zm-1.882 5.794c1.156.844 2.222 1.8 3.19 2.861.826.918.826 2.312-.003 3.232-3.184 3.505-7.482 5.949-11.373 5.883-1.105.009-2.206-.154-3.264-.483-.396-.122-.617-.543-.494-.938.122-.396.543-.617.938-.494.91.282 1.858.422 2.827.415 3.406.057 7.335-2.176 10.254-5.389.313-.348.313-.874.003-1.219-.897-.983-1.888-1.872-2.962-2.656-.335-.244-.408-.714-.164-1.048.244-.335.714-.408 1.048-.164zM15.75 12c.414 0 .75.335.75.75.001 2.414-1.9 4.384-4.287 4.496L12 17.25l-.103-.007c-.366-.05-.648-.363-.648-.743s.282-.693.648-.743L12 15.75l.177-.005C13.752 15.653 15 14.347 15 12.749c0-.414.335-.75.75-.75zM11.992 5.25c.876-.01 1.75.093 2.602.304.402.1.647.507.547.909-.1.402-.507.647-.909.547-.728-.18-1.475-.268-2.244-.26C8.609 6.694 4.66 8.92 1.736 12.137c-.313.348-.313.874-.003 1.218.768.84 1.607 1.615 2.506 2.314.327.254.386.725.132 1.052-.254.327-.725.386-1.052.132-.967-.751-1.868-1.583-2.697-2.49-.827-.918-.827-2.312.002-3.233 3.189-3.507 7.51-5.944 11.368-5.88zm.008 3c.414 0 .75.336.75.75 0 .38-.282.693-.648.743l-.103.007-.177.005C10.247 9.847 9 11.152 9 12.75c0 .414-.335.75-.75.75-.414 0-.75-.335-.75-.75-.001-2.414 1.899-4.383 4.286-4.495L12 8.25z"></path></g></g></svg>