<svg width="24" height="24" viewBox="0 0 24 24" fill="#000"><defs><path id="prefix__a" d="M0 0H24V24H0z"></path></defs><g><g><path d="M12.013 4.501l.34.001c3.78.084 7.943 2.489 11.028 5.881.827.918.827 2.312-.002 3.232-3.184 3.505-7.482 5.949-11.366 5.883h-.336c-3.819-.075-7.963-2.48-11.055-5.885-.827-.918-.827-2.312.002-3.232C3.81 6.873 8.134 4.436 12.013 4.5zm.321 1.5h-.655c-3.31.079-7.11 2.267-9.943 5.386-.313.348-.313.874-.002 1.22 2.919 3.214 6.847 5.448 10.279 5.391l.31-.001c3.333-.078 7.113-2.273 9.944-5.388.313-.348.313-.874.002-1.22-2.831-3.112-6.642-5.313-9.935-5.387zM12 7.499l.211.006c2.387.11 4.288 2.078 4.289 4.493l-.005.212c-.112 2.39-2.082 4.291-4.496 4.29-2.486-.001-4.5-2.016-4.499-4.501.001-2.486 2.015-4.499 4.5-4.5zm0 1.501l-.176.005C10.249 9.095 9 10.4 9 11.998c0 1.657 1.342 3 3 3.001 1.656 0 3-1.342 3-2.999l-.005-.177C14.903 10.246 13.598 8.998 12 9z"></path></g></g></svg>